<?xml version="1.0" encoding="UTF-8"?>
<svg id="Layer_1" xmlns="http://www.w3.org/2000/svg" version="1.1" viewBox="0 0 1091 437.2">
  <!-- Generator: Adobe Illustrator 29.4.0, SVG Export Plug-In . SVG Version: 2.1.0 Build 152)  -->
  <defs>
    <style>
      .st0 {
        fill: #1b1b1b;
      }

      .st1 {
        fill: #c3c3c3;
      }
    </style>
  </defs>
  <rect class="st0" x="-1.7" y="0" width="1092.8" height="437.2"/>
  <g>
    <path class="st1" d="M287.9,90.8c-.2-3.6,4.6-6.1,7.3-3.6,2.6,2.2,1.7,6.1,2.3,9.1,4.8,40.6,8.9,81.2,15,121.7,3.6-14.7,6.4-29.6,9.1-44.4.3-4,6.2-5.2,8-1.6,5.7,11.1,10.3,22.8,15.9,34,8.9-.2,17.8,0,26.8-.2,2.3,0,5.5,0,6.2,2.8,1.6,2.9-1,6.9-4.3,6.7-11.6.1-23.2,0-34.8,0-4.2-8-7.4-16.6-11.5-24.6-3.6,18.2-8.1,36.3-12,54.4-.6,2.1-.8,5.1-3.4,5.7-2.6,1.2-6.2-.6-6.2-3.6-3.1-25.6-6.4-51.2-9.4-76.8-1.7-11.6-2.4-23.3-4.4-34.8-3.3,33.3-6.9,66.6-11.1,99.8-1.5,15-3.6,29.9-5.6,44.8-.2,3.2-4.2,5.1-6.8,3.4-1.8-.7-2.4-2.6-2.6-4.3-3.5-30.9-8.3-61.6-11.9-92.4-3.2,8.6-5.5,17.5-8.6,26.1-.5,1.5-2.1,2.6-3.7,2.4-13.3,0-26.6,0-39.9,0-4,0-5.6-5.4-3.1-8,1.2-1.5,3.3-1.3,5-1.4,11.5,0,23,0,34.4,0,4.6-14.7,9.2-29.4,14-44,1.1-4.1,7.6-3.1,7.9.9,3.1,23.3,5.8,46.7,9.1,70,.7,3.7.2,7.7,2.1,11.1,3.6-36.6,8.4-73,11.7-109.6,1.6-14.4,2.9-28.9,4.5-43.3Z"/>
    <path class="st1" d="M416.4,154.3c6.4-7.4,16.3-10.9,25.9-11.2,9.7-.6,20,.4,28.4,5.8,5.2,3.2,8.7,8.3,11.5,13.6-5,3.1-10.2,5.7-15.3,8.6-6.1-12.2-23.7-14.1-34.2-6.6-4.2,2.8-5.6,8.6-4,13.2,2.1,4.7,7.3,6.8,11.9,8.1,10.9,3.2,22.8,4.1,32.7,10.2,7.4,4.6,12.3,13.3,12,22.1.4,10.4-5.9,20.2-14.6,25.5-7.6,4.6-16.7,5.9-25.4,6.2-8.5-.1-17.4-1.3-24.8-5.8-6-3.6-10.5-9.4-13.3-15.8l.3-.7c4.6-3.1,9.3-5.8,13.9-8.8,3.1,6.6,9.2,11.4,16.3,13,8.1,1.6,17.4,1.4,24.2-3.9,4.1-3,5.7-9,3.2-13.5-3.1-5.9-10.1-7.5-16-8.9-11-2.6-23.4-4-31.9-12.2-10.6-10-10.5-28.4-.8-39Z"/>
    <path class="st1" d="M544.9,153.9c7.2-7.7,18-11,28.3-10.8,8.7-.3,17.8,1.1,25.2,5.9,5.1,3.3,9,8.3,11.2,13.9-5,2.7-10,5.5-15,8.3-6.1-12.2-23.6-14-34-6.5-5.6,3.8-6.3,13-.9,17.2,5.3,4,12.1,5,18.4,6.6,10.1,2.3,21.4,4.3,28.6,12.5,6.9,7.3,8.3,18.6,4.9,27.8-3,8.3-10,14.8-18.2,17.8-9,3.3-18.7,4.2-28.2,3-8.2-.8-16.5-3.7-22.6-9.6-3.5-3.3-5.8-7.5-8-11.7,4.7-3.4,9.7-6.3,14.7-9.3,3.5,7.7,11.4,12.7,19.7,13.6,7.1.8,15,0,20.8-4.5,4.5-3.3,5.8-10.2,2.5-14.7-3.7-5.1-10.4-6.5-16.2-8-11.1-2.6-23.7-4.2-31.9-13-10-10.3-9.1-28.2.6-38.3Z"/>
    <path class="st1" d="M816.1,147.1c11.4-5.1,24.5-5.5,36.4-2.1,14.9,4.2,27.3,15.6,33.2,29.9,5.1,12.5,5.7,26.7,1.8,39.6-1.8,6-5.1,11.5-9.5,16.1,3.8,4.2,7.6,8.3,11.4,12.4-4.3,3.9-8.5,8-13,11.6-4.2-4.4-8.4-8.9-12.4-13.4-10.2,7.3-23.2,10.4-35.5,8.7-12.8-1.9-24.7-9-32.6-19.2-9.6-12.1-13.5-28.4-10.7-43.5,2.6-17.5,14.8-33.1,30.9-40.1ZM819.9,165.9c-6.8,4.2-12.2,10.7-14.9,18.2-6.2,16.3.9,36.9,16.7,44.7,9.7,4.9,21.1,3.6,30.9-.2-5.5-6-11-11.9-16.4-17.9,4.2-3.6,8.3-7.3,12.4-11,5.8,5.9,11.1,12.4,17.2,18.1,3.6-5.1,5.4-11.3,5.9-17.5,1.8-15.7-8-32-22.9-37.4-9.5-3.2-20.4-2.1-28.9,3.2Z"/>
    <path class="st1" d="M500.3,145.2h18.8c0,34,0,68.1,0,102.1-6.3,0-12.6,0-18.8,0,.2-34,.1-68,0-102.1Z"/>
    <path class="st1" d="M628.2,145.2c6.9,0,13.8,0,20.7,0,10,19.1,20.1,38.2,30.1,57.3,9.9-19.1,19.8-38.1,29.4-57.3,6.9,0,13.8,0,20.8,0,0,34,0,68.1,0,102.1-6,0-12.1,0-18.1,0,0-23.2.2-46.3,0-69.5-10.5,18.9-20.3,38.2-30.3,57.4-1.2,0-2.4,0-3.7,0-10.2-18.9-19.8-38.2-30.1-57.1-.1,23-.2,46.1,0,69.1-6.3,0-12.6,0-18.9,0v-102.1Z"/>
    <path class="st1" d="M749.7,145.2h18.5c0,34,0,68.1,0,102.1-6.2,0-12.4,0-18.5,0,.2-34,0-68.1,0-102.1Z"/>
    <path class="st1" d="M280.2,321.6c1.7,0,3.3,0,5,0,0,7.9,0,15.7,0,23.6,4.1,0,8.1,0,12.2,0,0,1.7,0,3.3,0,5h-17.2c0-9.5,0-19.1,0-28.6Z"/>
    <path class="st1" d="M537.2,321.7c1.7,0,3.3,0,5,0v28.6c-1.7,0-3.3,0-5,0v-13c-4.3,0-8.6,0-12.9,0,0,4.3,0,8.6,0,12.9-1.7,0-3.4,0-5,0,.2-9.5.1-19,0-28.4,1.7,0,3.3,0,5-.1,0,3.7,0,7.4,0,11.1,4.3,0,8.6,0,12.9,0,0-3.7,0-7.4,0-11.1Z"/>
    <path class="st1" d="M647.7,321.8c6.6-2.3,14.6,1.4,16.9,8.1,1.8,5.3,1.4,11.8-2.4,16.2-4.8,5.7-14.5,6.2-19.7.9-7.3-7.1-5.2-22.3,5.2-25.2ZM648.6,326.6c-5.3,2.2-6.5,9.1-4.6,14,1.5,4.4,7.2,7,11.3,4.8,5.6-2.5,6.3-10.2,3.8-15.1-1.9-3.9-6.7-5-10.6-3.7Z"/>
    <path class="st1" d="M672.2,321.6c5.2.4,10.7-.9,15.7.9,6.6,3.3,6.3,13.4.4,17.3,1.9,3.4,3.6,6.8,5.3,10.3-1.9,0-3.7,0-5.6,0-1.6-3.1-3.2-6.2-4.6-9.4-2.1,0-4.1,0-6.2-.1,0,3.2,0,6.3,0,9.5-1.7,0-3.3,0-5,0v-28.6ZM677.2,326.2c0,3.3,0,6.6,0,10,2.6,0,5.2.2,7.7-.2,2.9-1.5,4-5.7,1.8-8.2-2.4-2.6-6.3-1.2-9.5-1.6Z"/>
    <path class="st1" d="M790.2,321.7c1.7,0,3.3,0,5,0v11.1c4.3-.1,8.6,0,12.9,0,0-3.7,0-7.4,0-11.1,1.7,0,3.3.1,5,.2-.2,9.4,0,18.9,0,28.3-1.7,0-3.4,0-5.1,0,0-4.3,0-8.6,0-12.9-4.2,0-8.5,0-12.8,0v13c-1.7,0-3.3,0-5,0,0-9.5,0-19,0-28.6Z"/>
    <path class="st1" d="M861.2,324.1c4.4-4.6,13.1-3.8,16.5,1.7-1.1.8-2.2,1.7-3.3,2.5-2.3-1.5-5-3.4-7.8-2.2-3,.5-3.1,5.3-.2,6.1,4,1.7,9.5,1.7,11.9,6,2.8,4.7-.4,11.1-5.6,12.2-5.6,1.9-11.8-1.1-14.3-6.4,1.4-.9,2.9-1.7,4.3-2.5,1.4,1.8,2.8,3.8,5.1,4.4,2.8,1.1,7-1.1,6.5-4.4-2.3-4.2-8-3-11.5-5.6-4-2.4-4.5-8.5-1.4-11.9Z"/>
    <path class="st1" d="M204.2,321.8c6,0,12,0,18,0,0,1.5,0,3,0,4.5-4.3,0-8.7,0-13,0,0,2.3,0,4.6,0,7h11.7c0,1.4.1,2.8.2,4.3-4,0-7.9,0-11.9,0v12.7c-1.7,0-3.3,0-5,0,0-9.5,0-19,0-28.5Z"/>
    <path class="st1" d="M229.3,321.8c6,0,11.9,0,17.9,0,0,1.5,0,3,0,4.5-4.3,0-8.7,0-13,0,0,2.4,0,4.7,0,7.1,3.8,0,7.6,0,11.4,0,0,1.4,0,2.8,0,4.3-3.8,0-7.6,0-11.5,0,0,2.8,0,5.6,0,8.4,4.4,0,8.8,0,13.2,0,0,1.5,0,3,0,4.5-6.1,0-12.1,0-18.2,0,0-9.5.2-19,0-28.5Z"/>
    <path class="st1" d="M254.8,321.7c5.9,0,11.8,0,17.7,0,0,1.5,0,3,0,4.5-4.3,0-8.6,0-12.9,0,0,2.4,0,4.7-.1,7,3.8,0,7.6,0,11.4,0,0,1.4,0,2.8.1,4.2-3.8,0-7.6,0-11.4,0,0,2.8,0,5.6,0,8.4,4.4-.1,8.9-.2,13.3-.1,0,1.5,0,3-.1,4.5h-18c0-9.5,0-19,0-28.5Z"/>
    <path class="st1" d="M312.4,321.8c6.6-.3,13.3,0,19.9-.1,0,1.5,0,3,.1,4.5-2.5,0-5,0-7.6,0,0,8,0,16,0,24-1.7,0-3.3,0-5,0,0-8,0-16,0-24-2.6,0-5.1,0-7.7,0,0-1.5,0-3,0-4.5Z"/>
    <path class="st1" d="M339.7,321.7c1.7,0,3.3,0,5,0,0,3.7,0,7.5,0,11.2,4.2-.1,8.4-.2,12.6,0,0-3.7,0-7.4,0-11.1,1.7,0,3.3,0,5,0,0,9.5-.1,19,0,28.5-1.7,0-3.4,0-5.1,0,0-4.3,0-8.7,0-13-4.2,0-8.4,0-12.6,0,0,4.3,0,8.6,0,13-1.7,0-3.4,0-5.1,0,0-9.5,0-19,0-28.5Z"/>
    <path class="st1" d="M371.2,321.7c6,0,12,0,18,0,0,1.5,0,3,0,4.5-4.3,0-8.7,0-13,0,0,2.4,0,4.7,0,7.1,3.8,0,7.6,0,11.4,0,0,1.4.1,2.8.2,4.3-3.9,0-7.7,0-11.5,0,0,2.8,0,5.5,0,8.3,4.4,0,8.7,0,13.1,0,0,1.5.2,3,.2,4.5h-18.3v-28.5Z"/>
    <path class="st1" d="M409.3,321.8c6-.2,12,0,18,0,0,1.5,0,3,0,4.5-4.3,0-8.7,0-13,0,0,2.4,0,4.7,0,7.1,3.9,0,7.8,0,11.7,0,0,1.3,0,2.7,0,4-3.9.1-7.8.1-11.7,0,0,2.8,0,5.5,0,8.3,4.5,0,9,0,13.5,0,0,1.5,0,3,0,4.5-6.2,0-12.3,0-18.5,0,0-9.5.2-19,0-28.4Z"/>
    <path class="st1" d="M443.3,321.7c2,0,3.9,0,5.9,0,3.6,9.5,7,19,10.4,28.5-1.9,0-3.9,0-5.8,0-.5-2-1.2-4-1.7-6-3.9,0-7.8,0-11.7,0-.7,2-1.5,4-2.2,6-1.9,0-3.7,0-5.5,0,3.7-9.5,7.1-19,10.7-28.5ZM441.8,340.2h8.7c-1.5-4.2-2.8-8.5-4.3-12.6-1.5,4.2-3,8.4-4.4,12.6Z"/>
    <path class="st1" d="M465.3,321.8c6.2.5,13.8-2.1,18.6,2.9,4.1,4.6,2.5,11.8-2.2,15.3,1.9,3.4,3.6,6.9,5.5,10.2-2,0-3.9,0-5.9,0-1.5-3-2.8-6-4.5-8.8-1.9-1.1-4.4-.3-6.6-.5,0,3.1,0,6.2,0,9.4-1.7,0-3.3,0-5,0,0-9.5.2-19,0-28.4ZM470.2,326.2v10c3.3-.5,7.8,1.4,10-2,2-2.6.9-6.8-2.3-7.9-2.6-.3-5.2,0-7.8-.2Z"/>
    <path class="st1" d="M492.2,321.7c6.7,0,13.4,0,20.1,0,0,1.5,0,3,.1,4.6-2.5,0-5,0-7.5,0,0,8,0,16,0,24-1.7,0-3.4,0-5.1,0,0-8,0-16,0-24-2.6,0-5.2,0-7.9,0v-4.5Z"/>
    <path class="st1" d="M563.2,321.7c4.5.2,9.2-.6,13.6.9,4.9,2.2,4.8,9.2,1.4,12.7,4.1,2.7,5.2,8.9,1.6,12.4-4.5,4.1-11.1,1.9-16.6,2.5.1-9.5,0-19,0-28.5ZM568,325.2c0,3,0,6,0,9,2-.2,4.6.5,6.2-1.1,1.6-1.4,2.5-4,1.1-5.9-1.5-2.5-4.8-2-7.3-2ZM568.1,337.5c-.2,3.1-.2,6.1,0,9.2,1.7,0,3.4-.1,5.1-.4,3.3.1,5-4.6,2.9-6.9-1.9-2.3-5.3-1.5-7.9-2Z"/>
    <path class="st1" d="M590.2,321.7c5.8,0,11.7,0,17.5,0,0,1.5,0,3,0,4.5-4.2,0-8.4,0-12.6,0,0,2.3,0,4.7,0,7,3.7,0,7.5,0,11.2,0,0,1.4,0,2.8,0,4.3-3.7,0-7.4,0-11.1-.1,0,2.8,0,5.6,0,8.4,4.4-.1,8.7,0,13.1,0,0,1.5,0,3,0,4.5h-18c0-9.5,0-19,0-28.5Z"/>
    <path class="st1" d="M615.2,321.7c6,0,12-.1,18,0,0,1.5,0,3,0,4.5-4.3,0-8.7,0-13,0,0,2.3,0,4.6,0,7,3.8,0,7.6,0,11.4,0,0,1.4,0,2.9.1,4.3-3.8,0-7.7,0-11.5,0,0,4.2,0,8.5,0,12.8-1.7,0-3.3,0-5,0v-28.5Z"/>
    <path class="st1" d="M701.2,321.8c6,0,12-.1,18,0,0,1.5,0,3,0,4.4-4.3,0-8.7,0-13,0,0,2.3,0,4.7,0,7,3.8,0,7.7,0,11.5,0,0,1.3,0,2.6,0,4-3.8.2-7.7.1-11.5,0,0,2.8,0,5.6,0,8.5,4.4,0,8.8,0,13.2-.1,0,1.5,0,3,0,4.5h-18.2c0-9.5,0-19,0-28.5Z"/>
    <path class="st1" d="M739.2,321.8c1.7,0,3.3,0,5,0,0,9.5,0,19,0,28.5-1.7,0-3.3,0-5,0v-28.5Z"/>
    <path class="st1" d="M750.8,321.7c6.7,0,13.4,0,20.2,0,0,1.5,0,3,0,4.5-2.6,0-5.2,0-7.8,0,0,8,0,16,0,24-1.7,0-3.3,0-5,0,0-8,0-16,0-24-2.5,0-5,0-7.4,0,0-1.5,0-3,0-4.6Z"/>
    <path class="st1" d="M822.2,321.7c1.7,0,3.4,0,5.1.1-.1,9.5-.2,19,0,28.4-1.7,0-3.4,0-5,0,0-9.5,0-19,0-28.6Z"/>
    <path class="st1" d="M833.2,321.8c6.7,0,13.3,0,20,0,0,1.5,0,3,0,4.6-2.6,0-5.1,0-7.6,0,.1,8,0,16,0,24-1.7,0-3.3,0-5,0,0-8,0-16,.2-24-2.5,0-5.1,0-7.6,0,0-1.5,0-3,0-4.5Z"/>
    <path class="st1" d="M887.5,344.6c1.8-.5,4.3,1.5,3.7,3.5,0,2.7-3.8,2.9-5.6,1.7-1.4-1.9-.6-4.9,1.9-5.2Z"/>
  </g>
</svg>